<svg xmlns="http://www.w3.org/2000/svg" xmlns:xlink="http://www.w3.org/1999/xlink" width="500" zoomAndPan="magnify" viewBox="0 0 375 374.999991" height="500" preserveAspectRatio="xMidYMid meet" version="1.0"><defs><g/><clipPath id="20f470de7c"><path d="M 136.730469 160 L 175 160 L 175 200 L 136.730469 200 Z M 136.730469 160 " clip-rule="nonzero"/></clipPath><clipPath id="ecb7f3dd8d"><path d="M 167 146.441406 L 181.730469 146.441406 L 181.730469 163 L 167 163 Z M 167 146.441406 " clip-rule="nonzero"/></clipPath></defs><rect x="-37.5" width="450" fill="#ffffff" y="-37.499999" height="449.999989" fill-opacity="1"/><rect x="-37.5" width="450" fill="#ffffff" y="-37.499999" height="449.999989" fill-opacity="1"/><g fill="#2c3892" fill-opacity="1"><g transform="translate(61.620745, 217.304225)"><g><path d="M 8.359375 -47.65625 L 8.359375 -65.390625 L 24.796875 -65.390625 L 24.796875 -47.65625 L 34.828125 -47.65625 L 34.828125 -35.109375 L 24.796875 -35.109375 L 24.796875 -19.96875 C 24.796875 -15.570312 26.035156 -13.375 28.515625 -13.375 C 29.140625 -13.375 29.789062 -13.5 30.46875 -13.75 C 31.144531 -14 31.671875 -14.242188 32.046875 -14.484375 L 32.609375 -14.859375 L 36.6875 -1.578125 C 33.15625 0.398438 29.128906 1.390625 24.609375 1.390625 C 21.515625 1.390625 18.851562 0.847656 16.625 -0.234375 C 14.394531 -1.316406 12.707031 -2.769531 11.5625 -4.59375 C 10.414062 -6.425781 9.59375 -8.347656 9.09375 -10.359375 C 8.601562 -12.367188 8.359375 -14.519531 8.359375 -16.8125 L 8.359375 -35.109375 L 1.484375 -35.109375 L 1.484375 -47.65625 Z M 8.359375 -47.65625 "/></g></g></g><g fill="#2c3892" fill-opacity="1"><g transform="translate(91.249806, 217.304225)"><g><path d="M 5.578125 0 L 5.578125 -47.65625 L 22.015625 -47.65625 L 22.015625 -40.78125 L 22.203125 -40.78125 C 22.328125 -41.03125 22.523438 -41.335938 22.796875 -41.703125 C 23.078125 -42.078125 23.679688 -42.726562 24.609375 -43.65625 C 25.546875 -44.582031 26.539062 -45.414062 27.59375 -46.15625 C 28.644531 -46.90625 30.003906 -47.570312 31.671875 -48.15625 C 33.347656 -48.75 35.050781 -49.046875 36.78125 -49.046875 C 38.582031 -49.046875 40.347656 -48.796875 42.078125 -48.296875 C 43.816406 -47.804688 45.085938 -47.3125 45.890625 -46.8125 L 47.1875 -46.078125 L 40.3125 -32.140625 C 38.269531 -33.867188 35.421875 -34.734375 31.765625 -34.734375 C 29.785156 -34.734375 28.082031 -34.300781 26.65625 -33.4375 C 25.226562 -32.570312 24.222656 -31.519531 23.640625 -30.28125 C 23.054688 -29.039062 22.640625 -27.988281 22.390625 -27.125 C 22.140625 -26.257812 22.015625 -25.578125 22.015625 -25.078125 L 22.015625 0 Z M 5.578125 0 "/></g></g></g><g fill="#2c3892" fill-opacity="1"><g transform="translate(130.456678, 217.304225)"><g/></g></g><g fill="#2c3892" fill-opacity="1"><g transform="translate(148.754052, 217.304225)"><g/></g></g><g fill="#2c3892" fill-opacity="1"><g transform="translate(167.051426, 217.304225)"><g/></g></g><g fill="#2c3892" fill-opacity="1"><g transform="translate(185.359022, 217.304225)"><g><path d="M 17.65625 -47.65625 L 29.265625 -21.734375 L 40.875 -47.65625 L 60.375 -47.65625 L 34.828125 0 L 23.6875 0 L -1.859375 -47.65625 Z M 17.65625 -47.65625 "/></g></g></g><g fill="#2c3892" fill-opacity="1"><g transform="translate(236.815535, 217.304225)"><g><path d="M 53.78125 -21.546875 L 19.234375 -21.546875 C 19.234375 -18.203125 20.316406 -15.722656 22.484375 -14.109375 C 24.648438 -12.503906 27.003906 -11.703125 29.546875 -11.703125 C 32.203125 -11.703125 34.300781 -12.054688 35.84375 -12.765625 C 37.394531 -13.484375 39.164062 -14.894531 41.15625 -17 L 53.046875 -11.046875 C 48.085938 -2.753906 39.847656 1.390625 28.328125 1.390625 C 21.148438 1.390625 14.988281 -1.066406 9.84375 -5.984375 C 4.707031 -10.910156 2.140625 -16.84375 2.140625 -23.78125 C 2.140625 -30.71875 4.707031 -36.660156 9.84375 -41.609375 C 14.988281 -46.566406 21.148438 -49.046875 28.328125 -49.046875 C 35.890625 -49.046875 42.035156 -46.863281 46.765625 -42.5 C 51.503906 -38.132812 53.875 -31.894531 53.875 -23.78125 C 53.875 -22.664062 53.84375 -21.921875 53.78125 -21.546875 Z M 19.6875 -30.65625 L 37.8125 -30.65625 C 37.4375 -33.132812 36.457031 -35.035156 34.875 -36.359375 C 33.300781 -37.691406 31.273438 -38.359375 28.796875 -38.359375 C 26.066406 -38.359375 23.894531 -37.644531 22.28125 -36.21875 C 20.675781 -34.800781 19.8125 -32.945312 19.6875 -30.65625 Z M 19.6875 -30.65625 "/></g></g></g><g fill="#2c3892" fill-opacity="1"><g transform="translate(285.764212, 217.304225)"><g><path d="M 5.578125 0 L 5.578125 -79.890625 L 22.015625 -79.890625 L 22.015625 0 Z M 5.578125 0 "/></g></g></g><path fill="#f68712" d="M 171.945312 186.285156 C 171.464844 187.355469 170.945312 188.367188 170.390625 189.324219 C 169.851562 192.066406 168.4375 194.984375 165.886719 197.914062 C 160.136719 204.515625 149.71875 204.742188 143.03125 201.9375 C 148.8125 211.257812 158.574219 218.894531 158.574219 218.894531 C 158.574219 218.894531 180.402344 201.808594 180.402344 184.34375 C 180.402344 179.339844 178.722656 174.730469 175.890625 171.050781 C 175.226562 176.851562 173.902344 181.972656 171.945312 186.285156 Z M 171.945312 186.285156 " fill-opacity="1" fill-rule="nonzero"/><g clip-path="url(#20f470de7c)"><path fill="#f68712" d="M 153.503906 199.035156 C 156.9375 198.941406 160.148438 197.8125 162.984375 195.707031 C 164.5 194.585938 165.910156 193.183594 167.191406 191.507812 C 168.472656 189.835938 169.621094 187.890625 170.617188 185.683594 C 172.605469 181.304688 173.984375 175.886719 174.585938 169.507812 C 174.855469 166.605469 174.96875 163.5 174.902344 160.203125 C 174.238281 162.742188 173.507812 165.269531 172.703125 167.703125 C 171.347656 171.808594 169.78125 175.65625 167.984375 178.878906 C 165.199219 183.875 161.855469 187.371094 157.859375 188.015625 C 147.785156 189.628906 147.164062 174.636719 157.925781 174.035156 C 161.21875 173.851562 164.535156 175.261719 166.957031 177.710938 C 168.492188 174.875 169.957031 171.359375 171.316406 167.246094 C 171.371094 167.078125 171.429688 166.910156 171.484375 166.738281 C 167.867188 164.082031 163.402344 162.515625 158.574219 162.515625 C 146.515625 162.515625 136.742188 172.289062 136.742188 184.34375 C 136.742188 184.5 136.742188 185.308594 136.789062 185.738281 C 137.796875 194.914062 144.960938 199.273438 153.503906 199.035156 Z M 153.503906 199.035156 " fill-opacity="1" fill-rule="nonzero"/></g><g clip-path="url(#ecb7f3dd8d)"><path fill="#f68712" d="M 175.109375 154.167969 L 176.832031 162.636719 L 181.824219 162.925781 L 175.554688 146.441406 L 167.425781 162.089844 L 172.417969 162.378906 Z M 175.109375 154.167969 " fill-opacity="1" fill-rule="nonzero"/></g><g fill="#012c18" fill-opacity="1"><g transform="translate(157.306423, 232.271558)"><g><path d="M 0.171875 0 L 3.125 -7.171875 L 3.96875 -7.171875 L 6.921875 0 L 5.96875 0 L 5.28125 -1.625 L 1.796875 -1.625 L 1.140625 0 Z M 2.140625 -2.46875 L 4.953125 -2.46875 L 3.546875 -5.921875 Z M 2.140625 -2.46875 "/></g></g></g><g fill="#012c18" fill-opacity="1"><g transform="translate(166.627413, 232.271558)"><g><path d="M 1.046875 0 L 1.046875 -7.171875 L 3.53125 -7.171875 C 4.269531 -7.171875 4.910156 -7.019531 5.453125 -6.71875 C 6.003906 -6.414062 6.429688 -5.992188 6.734375 -5.453125 C 7.046875 -4.921875 7.203125 -4.300781 7.203125 -3.59375 C 7.203125 -2.882812 7.046875 -2.257812 6.734375 -1.71875 C 6.429688 -1.175781 6.003906 -0.753906 5.453125 -0.453125 C 4.910156 -0.148438 4.269531 0 3.53125 0 Z M 1.953125 -0.859375 L 3.53125 -0.859375 C 4.070312 -0.859375 4.550781 -0.972656 4.96875 -1.203125 C 5.382812 -1.429688 5.707031 -1.75 5.9375 -2.15625 C 6.164062 -2.570312 6.28125 -3.050781 6.28125 -3.59375 C 6.28125 -4.132812 6.160156 -4.609375 5.921875 -5.015625 C 5.691406 -5.421875 5.367188 -5.738281 4.953125 -5.96875 C 4.535156 -6.195312 4.046875 -6.3125 3.484375 -6.3125 L 1.953125 -6.3125 Z M 1.953125 -0.859375 "/></g></g></g><g fill="#012c18" fill-opacity="1"><g transform="translate(176.65511, 232.271558)"><g><path d="M 3.03125 0 L 0.171875 -7.171875 L 1.140625 -7.171875 L 2.328125 -4.15625 L 3.453125 -1.296875 L 4.578125 -4.15625 L 5.765625 -7.171875 L 6.71875 -7.171875 L 3.875 0 Z M 3.03125 0 "/></g></g></g><g fill="#012c18" fill-opacity="1"><g transform="translate(185.781507, 232.271558)"><g><path d="M 1.046875 0 L 1.046875 -7.171875 L 1.953125 -7.171875 L 1.953125 0 Z M 1.046875 0 "/></g></g></g><g fill="#012c18" fill-opacity="1"><g transform="translate(191.00566, 232.271558)"><g><path d="M 3.4375 0.140625 C 2.863281 0.140625 2.363281 0.0390625 1.9375 -0.15625 C 1.519531 -0.351562 1.195312 -0.625 0.96875 -0.96875 C 0.738281 -1.320312 0.617188 -1.734375 0.609375 -2.203125 L 1.515625 -2.203125 C 1.523438 -1.742188 1.707031 -1.382812 2.0625 -1.125 C 2.414062 -0.863281 2.875 -0.734375 3.4375 -0.734375 C 3.9375 -0.734375 4.332031 -0.832031 4.625 -1.03125 C 4.925781 -1.226562 5.078125 -1.503906 5.078125 -1.859375 C 5.078125 -2.191406 4.929688 -2.457031 4.640625 -2.65625 C 4.359375 -2.863281 3.894531 -3.039062 3.25 -3.1875 C 2.363281 -3.394531 1.71875 -3.664062 1.3125 -4 C 0.90625 -4.332031 0.703125 -4.773438 0.703125 -5.328125 C 0.703125 -5.941406 0.929688 -6.425781 1.390625 -6.78125 C 1.847656 -7.132812 2.472656 -7.3125 3.265625 -7.3125 C 4.066406 -7.3125 4.703125 -7.109375 5.171875 -6.703125 C 5.640625 -6.296875 5.878906 -5.742188 5.890625 -5.046875 L 4.984375 -5.046875 C 4.984375 -5.484375 4.828125 -5.828125 4.515625 -6.078125 C 4.203125 -6.328125 3.785156 -6.453125 3.265625 -6.453125 C 2.742188 -6.453125 2.335938 -6.347656 2.046875 -6.140625 C 1.765625 -5.941406 1.625 -5.671875 1.625 -5.328125 C 1.625 -5.035156 1.753906 -4.785156 2.015625 -4.578125 C 2.285156 -4.378906 2.769531 -4.195312 3.46875 -4.03125 C 4.382812 -3.800781 5.035156 -3.515625 5.421875 -3.171875 C 5.816406 -2.835938 6.015625 -2.410156 6.015625 -1.890625 C 6.015625 -1.265625 5.78125 -0.769531 5.3125 -0.40625 C 4.84375 -0.0390625 4.21875 0.140625 3.4375 0.140625 Z M 3.4375 0.140625 "/></g></g></g><g fill="#012c18" fill-opacity="1"><g transform="translate(199.865761, 232.271558)"><g><path d="M 4.3125 0.140625 C 3.582031 0.140625 2.9375 -0.015625 2.375 -0.328125 C 1.8125 -0.648438 1.375 -1.09375 1.0625 -1.65625 C 0.75 -2.21875 0.59375 -2.863281 0.59375 -3.59375 C 0.59375 -4.320312 0.75 -4.960938 1.0625 -5.515625 C 1.375 -6.078125 1.8125 -6.515625 2.375 -6.828125 C 2.9375 -7.148438 3.582031 -7.3125 4.3125 -7.3125 C 5.039062 -7.3125 5.679688 -7.148438 6.234375 -6.828125 C 6.796875 -6.515625 7.234375 -6.078125 7.546875 -5.515625 C 7.867188 -4.960938 8.03125 -4.320312 8.03125 -3.59375 C 8.03125 -2.863281 7.867188 -2.21875 7.546875 -1.65625 C 7.234375 -1.09375 6.796875 -0.648438 6.234375 -0.328125 C 5.679688 -0.015625 5.039062 0.140625 4.3125 0.140625 Z M 1.515625 -3.59375 C 1.515625 -3.03125 1.628906 -2.535156 1.859375 -2.109375 C 2.097656 -1.691406 2.425781 -1.363281 2.84375 -1.125 C 3.269531 -0.882812 3.757812 -0.765625 4.3125 -0.765625 C 4.863281 -0.765625 5.347656 -0.882812 5.765625 -1.125 C 6.179688 -1.363281 6.503906 -1.691406 6.734375 -2.109375 C 6.972656 -2.535156 7.09375 -3.03125 7.09375 -3.59375 C 7.09375 -4.144531 6.972656 -4.628906 6.734375 -5.046875 C 6.503906 -5.472656 6.179688 -5.804688 5.765625 -6.046875 C 5.347656 -6.285156 4.863281 -6.40625 4.3125 -6.40625 C 3.757812 -6.40625 3.269531 -6.285156 2.84375 -6.046875 C 2.425781 -5.804688 2.097656 -5.472656 1.859375 -5.046875 C 1.628906 -4.628906 1.515625 -4.144531 1.515625 -3.59375 Z M 1.515625 -3.59375 "/></g></g></g><g fill="#012c18" fill-opacity="1"><g transform="translate(210.702589, 232.271558)"><g><path d="M 1.046875 0 L 1.046875 -7.171875 L 3.78125 -7.171875 C 4.28125 -7.171875 4.710938 -7.078125 5.078125 -6.890625 C 5.453125 -6.703125 5.738281 -6.4375 5.9375 -6.09375 C 6.144531 -5.757812 6.25 -5.351562 6.25 -4.875 C 6.25 -4.289062 6.097656 -3.804688 5.796875 -3.421875 C 5.492188 -3.046875 5.082031 -2.796875 4.5625 -2.671875 L 6.359375 0 L 5.28125 0 L 3.53125 -2.578125 L 1.953125 -2.578125 L 1.953125 0 Z M 1.953125 -3.4375 L 3.6875 -3.4375 C 4.207031 -3.4375 4.609375 -3.5625 4.890625 -3.8125 C 5.179688 -4.0625 5.328125 -4.414062 5.328125 -4.875 C 5.328125 -5.332031 5.179688 -5.6875 4.890625 -5.9375 C 4.609375 -6.1875 4.207031 -6.3125 3.6875 -6.3125 L 1.953125 -6.3125 Z M 1.953125 -3.4375 "/></g></g></g></svg>